HIERARCHY
ROOT Hips
{
 OFFSET 0.000000 0.000000 0.000000
 CHANNELS 6 Xposition Yposition Zposition Yrotation Xrotation Zrotation
 JOINT Chest
 {
  OFFSET 0.000000 11.395451 -0.039534
  CHANNELS 3 Yrotation Xrotation Zrotation
  JOINT Chest2
  {
   OFFSET 0.000000 9.398669 0.071813
   CHANNELS 3 Yrotation Xrotation Zrotation
   JOINT Chest3
   {
    OFFSET 0.000000 8.489801 0.000000
    CHANNELS 3 Yrotation Xrotation Zrotation
    JOINT Chest4
    {
     OFFSET 0.000000 8.489801 0.000000
     CHANNELS 3 Yrotation Xrotation Zrotation
     JOINT Neck
     {
      OFFSET 0.000000 12.404889 0.000000
      CHANNELS 3 Yrotation Xrotation Zrotation
      JOINT Head
      {
       OFFSET 0.000000 8.903270 0.092239
       CHANNELS 3 Yrotation Xrotation Zrotation
       End Site
       {
        OFFSET 0.000000 17.592497 0.007158
       }
      }
     }
     JOINT RightCollar
     {
      OFFSET -3.196775 6.966722 0.000000
      CHANNELS 3 Yrotation Xrotation Zrotation
      JOINT RightShoulder
      {
       OFFSET -15.955896 0.000000 0.000000
       CHANNELS 3 Yrotation Xrotation Zrotation
       JOINT RightElbow
       {
        OFFSET -24.792472 0.000000 0.000000
        CHANNELS 3 Yrotation Xrotation Zrotation
        JOINT RightWrist
        {
         OFFSET -20.900115 0.000000 0.025002
         CHANNELS 3 Yrotation Xrotation Zrotation
         End Site
         {
          OFFSET -16.056692 0.000000 0.000000
         }
        }
       }
      }
     }
     JOINT LeftCollar
     {
      OFFSET 3.196775 6.966722 0.000000
      CHANNELS 3 Yrotation Xrotation Zrotation
      JOINT LeftShoulder
      {
       OFFSET 15.955896 0.000000 0.000000
       CHANNELS 3 Yrotation Xrotation Zrotation
       JOINT LeftElbow
       {
        OFFSET 24.792472 0.000000 0.000000
        CHANNELS 3 Yrotation Xrotation Zrotation
        JOINT LeftWrist
        {
         OFFSET 20.900115 0.000000 0.025002
         CHANNELS 3 Yrotation Xrotation Zrotation
         End Site
         {
          OFFSET 16.056692 0.000000 0.000000
         }
        }
       }
      }
     }
    }
   }
  }
 }
 JOINT RightHip
 {
  OFFSET -9.568995 0.193718 0.019767
  CHANNELS 3 Yrotation Xrotation Zrotation
  JOINT RightKnee
  {
   OFFSET 0.000000 -56.649296 0.015402
   CHANNELS 3 Yrotation Xrotation Zrotation
   JOINT RightAnkle
   {
    OFFSET 0.000000 -41.365147 0.021264
    CHANNELS 3 Yrotation Xrotation Zrotation
    JOINT RightToe
    {
     OFFSET 0.000000 -7.465940 17.672538
     CHANNELS 3 Yrotation Xrotation Zrotation
     End Site
     {
      OFFSET 0.000000 -1.736315 7.837145
     }
    }
   }
  }
 }
 JOINT LeftHip
 {
  OFFSET 9.568995 0.193718 0.019767
  CHANNELS 3 Yrotation Xrotation Zrotation
  JOINT LeftKnee
  {
   OFFSET 0.000000 -56.649296 0.015402
   CHANNELS 3 Yrotation Xrotation Zrotation
   JOINT LeftAnkle
   {
    OFFSET 0.000000 -41.365147 0.021264
    CHANNELS 3 Yrotation Xrotation Zrotation
    JOINT LeftToe
    {
     OFFSET 0.000000 -7.465940 17.672538
     CHANNELS 3 Yrotation Xrotation Zrotation
     End Site
     {
      OFFSET 0.000000 -1.736315 7.837145
     }
    }
   }
  }
 }
}
MOTION
Frames: 9
Frame Time: 0.016667
36.851515 106.404267 429.834747 -174.564423 -1.489496 -2.436111 -0.200307 4.082049 -0.155470 -0.087591 1.814310 -0.067287 -0.087585 1.814310 -0.067285 -0.065479 1.360742 -0.050199 -2.236692 16.702010 4.156461 -5.604372 -4.884952 8.489740 -2.952382 1.600521 7.097667 9.679228 -18.492595 52.824047 40.112134 -35.749681 29.593140 -14.136015 -18.244171 12.090049 2.497763 5.481374 -2.230149 -2.756147 -20.721074 -48.780312 -34.323251 -43.740298 -44.839589 18.198308 -17.346479 2.342801 -0.892623 -21.486410 -0.145040 -5.574489 49.860392 -3.719994 12.867871 -5.365256 10.805403 -1.524278 -0.865565 -8.658772 9.882332 -0.705814 2.612802 -0.517816 14.443272 1.713383 7.209375 -12.681988 -2.624456 -0.000000 -0.000000 0.000000
36.217008 106.420432 428.726353 -175.090624 -1.493208 -2.535516 -0.526763 4.143999 -0.079216 -0.233244 1.841872 -0.030476 -0.233239 1.841876 -0.030475 -0.174818 1.381421 -0.022152 -2.175466 16.646575 4.157571 -5.496109 -4.993268 8.474598 -3.012116 1.289844 7.089625 9.580242 -18.013928 52.598113 40.215410 -35.910356 29.807539 -14.105867 -18.312543 11.994492 2.536700 5.402799 -2.233890 -3.094686 -20.763294 -48.842190 -34.236392 -43.766147 -44.762767 18.202187 -17.342592 2.407101 -1.243558 -22.050523 0.241864 -4.534471 46.179451 -2.536627 12.051113 -5.850572 10.768005 -0.505517 -0.310009 -3.683270 9.478525 0.293431 2.507045 0.446157 13.891440 1.789350 7.206539 -12.993684 -2.432820 -0.000000 -0.000000 0.000000
35.619091 106.406581 427.587280 -175.547202 -1.490765 -2.608833 -0.856162 4.198809 -0.016387 -0.380105 1.866165 0.000473 -0.380105 1.866165 0.000473 -0.285055 1.399624 0.001516 -2.131533 16.602021 4.151241 -5.416200 -5.080368 8.450841 -3.064170 1.008103 7.101381 9.434475 -17.558502 52.368911 40.309163 -36.065489 30.020903 -14.084598 -18.379150 11.895816 2.566998 5.326253 -2.243833 -3.472245 -20.799351 -48.895163 -34.141758 -43.802279 -44.679742 18.212973 -17.336383 2.489340 -1.570415 -22.359536 0.658584 -3.940410 42.006908 -1.790878 11.157679 -6.055127 10.880226 0.000000 0.000000 0.000000 9.059218 1.269492 2.375467 1.294479 13.397170 1.831648 7.275387 -13.334079 -2.269712 0.000000 0.000000 0.000000
35.065713 106.358842 426.408591 -175.933909 -1.482435 -2.659684 -1.185777 4.236979 0.031645 -0.526933 1.883013 0.024890 -0.526936 1.883009 0.024893 -0.395245 1.412234 0.020293 -2.107908 16.584488 4.139029 -5.369631 -5.115956 8.421302 -3.111435 0.780453 7.142036 9.235190 -17.137327 52.147059 40.393566 -36.216708 30.214124 -14.085143 -18.438144 11.792995 2.590179 5.246679 -2.258413 -3.903264 -20.809542 -48.926759 -34.022892 -43.857554 -44.611245 18.235223 -17.328689 2.601039 -1.799215 -22.352172 1.112565 -4.150805 37.190752 -1.669702 10.344714 -5.850603 11.248458 0.046718 0.117505 0.918801 8.857668 2.203043 2.240596 1.769636 12.994943 1.827922 7.449464 -13.726193 -2.151027 -0.000177 0.032900 0.038169
34.548925 106.281087 425.199223 -176.251003 -1.467176 -2.684570 -1.518464 4.266825 0.066917 -0.675008 1.896145 0.043694 -0.675009 1.896147 0.043696 -0.506346 1.422064 0.034866 -2.102054 16.577250 4.118482 -5.352238 -5.131646 8.381713 -3.151783 0.582977 7.199045 8.988567 -16.739448 51.923711 40.469601 -36.361845 30.405613 -14.094045 -18.494788 11.686526 2.604640 5.168702 -2.279369 -4.372952 -20.812688 -48.950954 -33.897118 -43.923718 -44.536293 18.265422 -17.319967 2.730136 -1.991649 -22.091822 1.582078 -4.575098 31.882219 -1.769625 9.413921 -5.343104 11.730442 0.004039 0.061630 0.460001 8.638529 3.113213 2.087398 2.132653 12.652811 1.802640 7.695949 -14.147325 -2.063867 -0.000259 0.065794 0.076343
34.050543 106.172463 423.963950 -176.486920 -1.454108 -2.664097 -1.862973 4.295424 0.088324 -0.828207 1.908713 0.056481 -0.828207 1.908713 0.056481 -0.621274 1.431461 0.044944 -2.098558 16.569190 4.088146 -5.335891 -5.149470 8.324868 -3.177743 0.383575 7.247237 8.652242 -16.398756 51.722740 40.517633 -36.467561 30.631833 -14.125589 -18.535132 11.589774 2.618734 5.113111 -2.310119 -4.837846 -20.857297 -48.994526 -33.767086 -43.974740 -44.460824 18.299623 -17.309804 2.862082 -2.254198 -21.688957 1.996559 -4.537706 26.537225 -1.675374 8.159896 -4.659795 12.073938 0.000000 0.000000 0.000000 8.083247 4.040307 1.859353 2.786034 12.322809 1.789572 7.921502 -14.568821 -2.004206 0.000000 0.000000 0.000000
33.563970 106.030725 422.715624 -176.613200 -1.421563 -2.578972 -2.236231 4.313647 0.085666 -0.993957 1.916739 0.058845 -0.993961 1.916737 0.058846 -0.745588 1.437463 0.047250 -2.093380 16.558641 4.050344 -5.313976 -5.172600 8.253801 -3.189989 0.149375 7.286674 8.178108 -16.119318 51.564523 40.517984 -36.501574 30.933335 -14.193235 -18.551325 11.508078 2.630035 5.097834 -2.350593 -5.287930 -20.965619 -49.054274 -33.636539 -44.010027 -44.382852 18.344405 -17.296272 2.990998 -2.698439 -21.141729 2.337216 -3.664784 21.113445 -1.319706 6.293462 -3.767693 12.109360 0.000000 0.000000 0.000000 6.862779 4.965320 1.496480 4.076669 11.993618 1.787979 8.067541 -14.988030 -1.952016 0.000641 -0.219294 -0.316165
33.095803 105.858117 421.441391 -176.658229 -1.390968 -2.448429 -2.621394 4.329048 0.069447 -1.164863 1.923603 0.055315 -1.164867 1.923606 0.055319 -0.873746 1.442610 0.045156 -2.090559 16.546954 4.002791 -5.293078 -5.198414 8.165555 -3.187667 -0.087302 7.317079 7.615038 -15.895925 51.430383 40.493042 -36.494518 31.266957 -14.282999 -18.550422 11.435281 2.640489 5.104532 -2.402377 -5.734034 -21.116095 -49.129495 -33.500724 -44.030076 -44.304797 18.393100 -17.281285 3.122760 -3.211623 -20.454153 2.617996 -2.456756 15.654073 -0.962305 4.151702 -2.711855 11.891543 0.000000 0.000000 0.000000 5.297000 5.892768 1.040839 5.653803 11.674505 1.777625 8.192398 -15.407550 -1.926473 0.002682 -0.536798 -0.747210
32.647658 105.660513 420.107469 -176.695970 -1.436038 -2.310725 -2.976693 4.374394 0.068277 -1.322626 1.943710 0.058400 -1.322626 1.943710 0.058400 -0.992060 1.457664 0.048004 -2.086580 16.527523 3.937512 -5.264465 -5.240124 8.044615 -3.160744 -0.261930 7.312033 7.065582 -15.748521 51.289248 40.485762 -36.508467 31.544266 -14.368286 -18.541196 11.367944 2.665142 5.099607 -2.471125 -6.163911 -21.293396 -49.249858 -33.348010 -44.010447 -44.240124 18.421341 -17.269089 3.261019 -3.569705 -19.745695 2.823667 -1.613969 10.754277 -0.697836 2.466755 -1.753949 11.626215 -0.000000 0.000000 0.000000 4.041955 6.907580 0.589152 6.874496 11.348990 1.767576 8.378024 -15.806429 -1.982127 0.006063 -0.886205 -1.032408
